<svg xmlns="http://www.w3.org/2000/svg" viewBox="0 0 200 200" width="200" height="200">
  <rect width="200" height="200" fill="white"/>
  <!-- QR code placeholder pattern -->
  <!-- Position detection patterns (corners) -->
  <!-- Top-left -->
  <rect x="10" y="10" width="50" height="50" fill="#1a1a1a"/>
  <rect x="15" y="15" width="40" height="40" fill="white"/>
  <rect x="20" y="20" width="30" height="30" fill="#1a1a1a"/>
  <!-- Top-right -->
  <rect x="140" y="10" width="50" height="50" fill="#1a1a1a"/>
  <rect x="145" y="15" width="40" height="40" fill="white"/>
  <rect x="150" y="20" width="30" height="30" fill="#1a1a1a"/>
  <!-- Bottom-left -->
  <rect x="10" y="140" width="50" height="50" fill="#1a1a1a"/>
  <rect x="15" y="145" width="40" height="40" fill="white"/>
  <rect x="20" y="150" width="30" height="30" fill="#1a1a1a"/>
  <!-- Data modules - simulated pattern -->
  <rect x="70" y="10" width="10" height="10" fill="#1a1a1a"/>
  <rect x="90" y="10" width="10" height="10" fill="#1a1a1a"/>
  <rect x="110" y="10" width="10" height="10" fill="#1a1a1a"/>
  <rect x="70" y="30" width="10" height="10" fill="#1a1a1a"/>
  <rect x="100" y="30" width="10" height="10" fill="#1a1a1a"/>
  <rect x="120" y="30" width="10" height="10" fill="#1a1a1a"/>
  <rect x="70" y="50" width="10" height="10" fill="#1a1a1a"/>
  <rect x="80" y="50" width="10" height="10" fill="#1a1a1a"/>
  <rect x="100" y="50" width="10" height="10" fill="#1a1a1a"/>
  <rect x="10" y="70" width="10" height="10" fill="#1a1a1a"/>
  <rect x="30" y="70" width="10" height="10" fill="#1a1a1a"/>
  <rect x="50" y="70" width="10" height="10" fill="#1a1a1a"/>
  <rect x="70" y="70" width="10" height="10" fill="#1a1a1a"/>
  <rect x="100" y="70" width="10" height="10" fill="#1a1a1a"/>
  <rect x="130" y="70" width="10" height="10" fill="#1a1a1a"/>
  <rect x="150" y="70" width="10" height="10" fill="#1a1a1a"/>
  <rect x="180" y="70" width="10" height="10" fill="#1a1a1a"/>
  <rect x="20" y="80" width="10" height="10" fill="#1a1a1a"/>
  <rect x="40" y="80" width="10" height="10" fill="#1a1a1a"/>
  <rect x="80" y="80" width="10" height="10" fill="#1a1a1a"/>
  <rect x="110" y="80" width="10" height="10" fill="#1a1a1a"/>
  <rect x="140" y="80" width="10" height="10" fill="#1a1a1a"/>
  <rect x="170" y="80" width="10" height="10" fill="#1a1a1a"/>
  <rect x="10" y="90" width="10" height="10" fill="#1a1a1a"/>
  <rect x="50" y="90" width="10" height="10" fill="#1a1a1a"/>
  <rect x="70" y="90" width="10" height="10" fill="#1a1a1a"/>
  <rect x="90" y="90" width="10" height="10" fill="#1a1a1a"/>
  <rect x="120" y="90" width="10" height="10" fill="#1a1a1a"/>
  <rect x="160" y="90" width="10" height="10" fill="#1a1a1a"/>
  <rect x="180" y="90" width="10" height="10" fill="#1a1a1a"/>
  <rect x="30" y="100" width="10" height="10" fill="#1a1a1a"/>
  <rect x="60" y="100" width="10" height="10" fill="#1a1a1a"/>
  <rect x="80" y="100" width="10" height="10" fill="#1a1a1a"/>
  <rect x="110" y="100" width="10" height="10" fill="#1a1a1a"/>
  <rect x="140" y="100" width="10" height="10" fill="#1a1a1a"/>
  <rect x="170" y="100" width="10" height="10" fill="#1a1a1a"/>
  <rect x="10" y="110" width="10" height="10" fill="#1a1a1a"/>
  <rect x="40" y="110" width="10" height="10" fill="#1a1a1a"/>
  <rect x="70" y="110" width="10" height="10" fill="#1a1a1a"/>
  <rect x="90" y="110" width="10" height="10" fill="#1a1a1a"/>
  <rect x="130" y="110" width="10" height="10" fill="#1a1a1a"/>
  <rect x="150" y="110" width="10" height="10" fill="#1a1a1a"/>
  <rect x="180" y="110" width="10" height="10" fill="#1a1a1a"/>
  <rect x="20" y="120" width="10" height="10" fill="#1a1a1a"/>
  <rect x="50" y="120" width="10" height="10" fill="#1a1a1a"/>
  <rect x="80" y="120" width="10" height="10" fill="#1a1a1a"/>
  <rect x="100" y="120" width="10" height="10" fill="#1a1a1a"/>
  <rect x="120" y="120" width="10" height="10" fill="#1a1a1a"/>
  <rect x="160" y="120" width="10" height="10" fill="#1a1a1a"/>
  <!-- Bottom-right area -->
  <rect x="70" y="140" width="10" height="10" fill="#1a1a1a"/>
  <rect x="90" y="140" width="10" height="10" fill="#1a1a1a"/>
  <rect x="120" y="140" width="10" height="10" fill="#1a1a1a"/>
  <rect x="150" y="140" width="10" height="10" fill="#1a1a1a"/>
  <rect x="170" y="140" width="10" height="10" fill="#1a1a1a"/>
  <rect x="70" y="160" width="10" height="10" fill="#1a1a1a"/>
  <rect x="100" y="160" width="10" height="10" fill="#1a1a1a"/>
  <rect x="130" y="160" width="10" height="10" fill="#1a1a1a"/>
  <rect x="160" y="160" width="10" height="10" fill="#1a1a1a"/>
  <rect x="180" y="160" width="10" height="10" fill="#1a1a1a"/>
  <rect x="80" y="170" width="10" height="10" fill="#1a1a1a"/>
  <rect x="110" y="170" width="10" height="10" fill="#1a1a1a"/>
  <rect x="140" y="170" width="10" height="10" fill="#1a1a1a"/>
  <rect x="170" y="170" width="10" height="10" fill="#1a1a1a"/>
  <rect x="70" y="180" width="10" height="10" fill="#1a1a1a"/>
  <rect x="90" y="180" width="10" height="10" fill="#1a1a1a"/>
  <rect x="120" y="180" width="10" height="10" fill="#1a1a1a"/>
  <rect x="150" y="180" width="10" height="10" fill="#1a1a1a"/>
  <rect x="180" y="180" width="10" height="10" fill="#1a1a1a"/>
</svg>